<mxfile>
    <diagram id="PcLZSLNBghNSFwi_JfMx" name="Page-1">
        <mxGraphModel dx="19" dy="657" grid="1" gridSize="10" guides="1" tooltips="1" connect="1" arrows="1" fold="1" page="0" pageScale="1" pageWidth="850" pageHeight="1100" math="0" shadow="0">
            <root>
                <mxCell id="0"/>
                <mxCell id="1" value="Arduino" parent="0"/>
                <mxCell id="4" value="Arduino Nano 33 IoT" style="rounded=0;whiteSpace=wrap;html=1;" parent="1" vertex="1">
                    <mxGeometry x="560" y="280" width="240" height="340" as="geometry"/>
                </mxCell>
                <mxCell id="5" value="" style="rounded=0;whiteSpace=wrap;html=1;" parent="1" vertex="1">
                    <mxGeometry x="620" y="260" width="120" height="60" as="geometry"/>
                </mxCell>
                <mxCell id="6" value="" style="rounded=0;whiteSpace=wrap;html=1;" parent="1" vertex="1">
                    <mxGeometry x="620" y="600" width="120" height="40" as="geometry"/>
                </mxCell>
                <mxCell id="7" value="" style="rounded=0;whiteSpace=wrap;html=1;" parent="1" vertex="1">
                    <mxGeometry x="620" y="500" width="120" height="100" as="geometry"/>
                </mxCell>
                <mxCell id="8" value="" style="ellipse;whiteSpace=wrap;html=1;aspect=fixed;" parent="1" vertex="1">
                    <mxGeometry x="780" y="300" width="20" height="20" as="geometry"/>
                </mxCell>
                <mxCell id="9" value="" style="ellipse;whiteSpace=wrap;html=1;aspect=fixed;" parent="1" vertex="1">
                    <mxGeometry x="780" y="320" width="20" height="20" as="geometry"/>
                </mxCell>
                <mxCell id="11" value="" style="ellipse;whiteSpace=wrap;html=1;aspect=fixed;" parent="1" vertex="1">
                    <mxGeometry x="780" y="340" width="20" height="20" as="geometry"/>
                </mxCell>
                <mxCell id="12" value="" style="ellipse;whiteSpace=wrap;html=1;aspect=fixed;" parent="1" vertex="1">
                    <mxGeometry x="780" y="360" width="20" height="20" as="geometry"/>
                </mxCell>
                <mxCell id="13" value="" style="ellipse;whiteSpace=wrap;html=1;aspect=fixed;" parent="1" vertex="1">
                    <mxGeometry x="780" y="380" width="20" height="20" as="geometry"/>
                </mxCell>
                <mxCell id="14" value="" style="ellipse;whiteSpace=wrap;html=1;aspect=fixed;" parent="1" vertex="1">
                    <mxGeometry x="780" y="400" width="20" height="20" as="geometry"/>
                </mxCell>
                <mxCell id="15" value="" style="ellipse;whiteSpace=wrap;html=1;aspect=fixed;" parent="1" vertex="1">
                    <mxGeometry x="780" y="420" width="20" height="20" as="geometry"/>
                </mxCell>
                <mxCell id="16" value="" style="ellipse;whiteSpace=wrap;html=1;aspect=fixed;" parent="1" vertex="1">
                    <mxGeometry x="780" y="440" width="20" height="20" as="geometry"/>
                </mxCell>
                <mxCell id="25" value="D12" style="text;html=1;strokeColor=none;fillColor=none;align=left;verticalAlign=middle;whiteSpace=wrap;rounded=0;" parent="1" vertex="1">
                    <mxGeometry x="800" y="300" width="40" height="20" as="geometry"/>
                </mxCell>
                <mxCell id="26" value="D11" style="text;html=1;strokeColor=none;fillColor=none;align=left;verticalAlign=middle;whiteSpace=wrap;rounded=0;" parent="1" vertex="1">
                    <mxGeometry x="800" y="320" width="40" height="20" as="geometry"/>
                </mxCell>
                <mxCell id="27" value="D10" style="text;html=1;strokeColor=none;fillColor=none;align=left;verticalAlign=middle;whiteSpace=wrap;rounded=0;" parent="1" vertex="1">
                    <mxGeometry x="800" y="340" width="40" height="20" as="geometry"/>
                </mxCell>
                <mxCell id="28" value="D9" style="text;html=1;strokeColor=none;fillColor=none;align=left;verticalAlign=middle;whiteSpace=wrap;rounded=0;" parent="1" vertex="1">
                    <mxGeometry x="800" y="360" width="40" height="20" as="geometry"/>
                </mxCell>
                <mxCell id="29" value="D8" style="text;html=1;strokeColor=none;fillColor=none;align=left;verticalAlign=middle;whiteSpace=wrap;rounded=0;" parent="1" vertex="1">
                    <mxGeometry x="800" y="380" width="40" height="20" as="geometry"/>
                </mxCell>
                <mxCell id="30" value="D7" style="text;html=1;strokeColor=none;fillColor=none;align=left;verticalAlign=middle;whiteSpace=wrap;rounded=0;" parent="1" vertex="1">
                    <mxGeometry x="800" y="400" width="40" height="20" as="geometry"/>
                </mxCell>
                <mxCell id="31" value="D6" style="text;html=1;strokeColor=none;fillColor=none;align=left;verticalAlign=middle;whiteSpace=wrap;rounded=0;" parent="1" vertex="1">
                    <mxGeometry x="800" y="420" width="40" height="20" as="geometry"/>
                </mxCell>
                <mxCell id="32" value="D5" style="text;html=1;strokeColor=none;fillColor=none;align=left;verticalAlign=middle;whiteSpace=wrap;rounded=0;" parent="1" vertex="1">
                    <mxGeometry x="800" y="440" width="40" height="20" as="geometry"/>
                </mxCell>
                <mxCell id="33" value="" style="ellipse;whiteSpace=wrap;html=1;aspect=fixed;" parent="1" vertex="1">
                    <mxGeometry x="780" y="460" width="20" height="20" as="geometry"/>
                </mxCell>
                <mxCell id="34" value="D4" style="text;html=1;strokeColor=none;fillColor=none;align=left;verticalAlign=middle;whiteSpace=wrap;rounded=0;" parent="1" vertex="1">
                    <mxGeometry x="800" y="460" width="40" height="20" as="geometry"/>
                </mxCell>
                <mxCell id="35" value="" style="ellipse;whiteSpace=wrap;html=1;aspect=fixed;" parent="1" vertex="1">
                    <mxGeometry x="780" y="480" width="20" height="20" as="geometry"/>
                </mxCell>
                <mxCell id="36" value="D3" style="text;html=1;strokeColor=none;fillColor=none;align=left;verticalAlign=middle;whiteSpace=wrap;rounded=0;" parent="1" vertex="1">
                    <mxGeometry x="800" y="480" width="40" height="20" as="geometry"/>
                </mxCell>
                <mxCell id="37" value="" style="ellipse;whiteSpace=wrap;html=1;aspect=fixed;" parent="1" vertex="1">
                    <mxGeometry x="780" y="500" width="20" height="20" as="geometry"/>
                </mxCell>
                <mxCell id="38" value="D2" style="text;html=1;strokeColor=none;fillColor=none;align=left;verticalAlign=middle;whiteSpace=wrap;rounded=0;" parent="1" vertex="1">
                    <mxGeometry x="800" y="500" width="40" height="20" as="geometry"/>
                </mxCell>
                <mxCell id="39" value="" style="ellipse;whiteSpace=wrap;html=1;aspect=fixed;" parent="1" vertex="1">
                    <mxGeometry x="780" y="520" width="20" height="20" as="geometry"/>
                </mxCell>
                <mxCell id="40" value="GND" style="text;html=1;strokeColor=none;fillColor=none;align=left;verticalAlign=middle;whiteSpace=wrap;rounded=0;" parent="1" vertex="1">
                    <mxGeometry x="800" y="520" width="40" height="20" as="geometry"/>
                </mxCell>
                <mxCell id="41" value="" style="ellipse;whiteSpace=wrap;html=1;aspect=fixed;" parent="1" vertex="1">
                    <mxGeometry x="780" y="540" width="20" height="20" as="geometry"/>
                </mxCell>
                <mxCell id="42" value="RESET" style="text;html=1;strokeColor=none;fillColor=none;align=left;verticalAlign=middle;whiteSpace=wrap;rounded=0;" parent="1" vertex="1">
                    <mxGeometry x="800" y="540" width="40" height="20" as="geometry"/>
                </mxCell>
                <mxCell id="43" value="" style="ellipse;whiteSpace=wrap;html=1;aspect=fixed;" parent="1" vertex="1">
                    <mxGeometry x="780" y="560" width="20" height="20" as="geometry"/>
                </mxCell>
                <mxCell id="44" value="RX" style="text;html=1;strokeColor=none;fillColor=none;align=left;verticalAlign=middle;whiteSpace=wrap;rounded=0;" parent="1" vertex="1">
                    <mxGeometry x="800" y="560" width="40" height="20" as="geometry"/>
                </mxCell>
                <mxCell id="45" value="" style="ellipse;whiteSpace=wrap;html=1;aspect=fixed;" parent="1" vertex="1">
                    <mxGeometry x="780" y="580" width="20" height="20" as="geometry"/>
                </mxCell>
                <mxCell id="46" value="TX" style="text;html=1;strokeColor=none;fillColor=none;align=left;verticalAlign=middle;whiteSpace=wrap;rounded=0;" parent="1" vertex="1">
                    <mxGeometry x="800" y="580" width="40" height="20" as="geometry"/>
                </mxCell>
                <mxCell id="62" value="" style="ellipse;whiteSpace=wrap;html=1;aspect=fixed;" parent="1" vertex="1">
                    <mxGeometry x="560" y="300" width="20" height="20" as="geometry"/>
                </mxCell>
                <mxCell id="63" value="" style="ellipse;whiteSpace=wrap;html=1;aspect=fixed;" parent="1" vertex="1">
                    <mxGeometry x="560" y="320" width="20" height="20" as="geometry"/>
                </mxCell>
                <mxCell id="64" value="" style="ellipse;whiteSpace=wrap;html=1;aspect=fixed;" parent="1" vertex="1">
                    <mxGeometry x="560" y="340" width="20" height="20" as="geometry"/>
                </mxCell>
                <mxCell id="65" value="" style="ellipse;whiteSpace=wrap;html=1;aspect=fixed;" parent="1" vertex="1">
                    <mxGeometry x="560" y="360" width="20" height="20" as="geometry"/>
                </mxCell>
                <mxCell id="66" value="" style="ellipse;whiteSpace=wrap;html=1;aspect=fixed;" parent="1" vertex="1">
                    <mxGeometry x="560" y="380" width="20" height="20" as="geometry"/>
                </mxCell>
                <mxCell id="67" value="" style="ellipse;whiteSpace=wrap;html=1;aspect=fixed;" parent="1" vertex="1">
                    <mxGeometry x="560" y="400" width="20" height="20" as="geometry"/>
                </mxCell>
                <mxCell id="68" value="" style="ellipse;whiteSpace=wrap;html=1;aspect=fixed;" parent="1" vertex="1">
                    <mxGeometry x="560" y="420" width="20" height="20" as="geometry"/>
                </mxCell>
                <mxCell id="69" value="" style="ellipse;whiteSpace=wrap;html=1;aspect=fixed;" parent="1" vertex="1">
                    <mxGeometry x="560" y="440" width="20" height="20" as="geometry"/>
                </mxCell>
                <mxCell id="70" value="" style="ellipse;whiteSpace=wrap;html=1;aspect=fixed;" parent="1" vertex="1">
                    <mxGeometry x="560" y="460" width="20" height="20" as="geometry"/>
                </mxCell>
                <mxCell id="71" value="" style="ellipse;whiteSpace=wrap;html=1;aspect=fixed;" parent="1" vertex="1">
                    <mxGeometry x="560" y="480" width="20" height="20" as="geometry"/>
                </mxCell>
                <mxCell id="72" value="" style="ellipse;whiteSpace=wrap;html=1;aspect=fixed;" parent="1" vertex="1">
                    <mxGeometry x="560" y="500" width="20" height="20" as="geometry"/>
                </mxCell>
                <mxCell id="73" value="" style="ellipse;whiteSpace=wrap;html=1;aspect=fixed;" parent="1" vertex="1">
                    <mxGeometry x="560" y="520" width="20" height="20" as="geometry"/>
                </mxCell>
                <mxCell id="74" value="" style="ellipse;whiteSpace=wrap;html=1;aspect=fixed;" parent="1" vertex="1">
                    <mxGeometry x="560" y="540" width="20" height="20" as="geometry"/>
                </mxCell>
                <mxCell id="75" value="" style="ellipse;whiteSpace=wrap;html=1;aspect=fixed;" parent="1" vertex="1">
                    <mxGeometry x="560" y="560" width="20" height="20" as="geometry"/>
                </mxCell>
                <mxCell id="76" value="" style="ellipse;whiteSpace=wrap;html=1;aspect=fixed;" parent="1" vertex="1">
                    <mxGeometry x="560" y="580" width="20" height="20" as="geometry"/>
                </mxCell>
                <mxCell id="77" value="D13" style="text;html=1;strokeColor=none;fillColor=none;align=right;verticalAlign=middle;whiteSpace=wrap;rounded=0;" parent="1" vertex="1">
                    <mxGeometry x="520" y="300" width="40" height="20" as="geometry"/>
                </mxCell>
                <mxCell id="78" value="+3V3" style="text;html=1;strokeColor=none;fillColor=none;align=right;verticalAlign=middle;whiteSpace=wrap;rounded=0;" parent="1" vertex="1">
                    <mxGeometry x="520" y="320" width="40" height="20" as="geometry"/>
                </mxCell>
                <mxCell id="79" value="AREF" style="text;html=1;strokeColor=none;fillColor=none;align=right;verticalAlign=middle;whiteSpace=wrap;rounded=0;" parent="1" vertex="1">
                    <mxGeometry x="520" y="340" width="40" height="20" as="geometry"/>
                </mxCell>
                <mxCell id="80" value="D14" style="text;html=1;strokeColor=none;fillColor=none;align=right;verticalAlign=middle;whiteSpace=wrap;rounded=0;" parent="1" vertex="1">
                    <mxGeometry x="520" y="360" width="40" height="20" as="geometry"/>
                </mxCell>
                <mxCell id="81" value="D15" style="text;html=1;strokeColor=none;fillColor=none;align=right;verticalAlign=middle;whiteSpace=wrap;rounded=0;" parent="1" vertex="1">
                    <mxGeometry x="520" y="380" width="40" height="20" as="geometry"/>
                </mxCell>
                <mxCell id="82" value="D16" style="text;html=1;strokeColor=none;fillColor=none;align=right;verticalAlign=middle;whiteSpace=wrap;rounded=0;" parent="1" vertex="1">
                    <mxGeometry x="520" y="400" width="40" height="20" as="geometry"/>
                </mxCell>
                <mxCell id="83" value="D17" style="text;html=1;strokeColor=none;fillColor=none;align=right;verticalAlign=middle;whiteSpace=wrap;rounded=0;" parent="1" vertex="1">
                    <mxGeometry x="520" y="420" width="40" height="20" as="geometry"/>
                </mxCell>
                <mxCell id="84" value="D18" style="text;html=1;strokeColor=none;fillColor=none;align=right;verticalAlign=middle;whiteSpace=wrap;rounded=0;" parent="1" vertex="1">
                    <mxGeometry x="520" y="440" width="40" height="20" as="geometry"/>
                </mxCell>
                <mxCell id="85" value="D19" style="text;html=1;strokeColor=none;fillColor=none;align=right;verticalAlign=middle;whiteSpace=wrap;rounded=0;" parent="1" vertex="1">
                    <mxGeometry x="520" y="460" width="40" height="20" as="geometry"/>
                </mxCell>
                <mxCell id="86" value="D20" style="text;html=1;strokeColor=none;fillColor=none;align=right;verticalAlign=middle;whiteSpace=wrap;rounded=0;" parent="1" vertex="1">
                    <mxGeometry x="520" y="480" width="40" height="20" as="geometry"/>
                </mxCell>
                <mxCell id="87" value="D21" style="text;html=1;strokeColor=none;fillColor=none;align=right;verticalAlign=middle;whiteSpace=wrap;rounded=0;" parent="1" vertex="1">
                    <mxGeometry x="520" y="500" width="40" height="20" as="geometry"/>
                </mxCell>
                <mxCell id="88" value="+5V" style="text;html=1;strokeColor=none;fillColor=none;align=right;verticalAlign=middle;whiteSpace=wrap;rounded=0;" parent="1" vertex="1">
                    <mxGeometry x="520" y="520" width="40" height="20" as="geometry"/>
                </mxCell>
                <mxCell id="89" value="RESET" style="text;html=1;strokeColor=none;fillColor=none;align=right;verticalAlign=middle;whiteSpace=wrap;rounded=0;" parent="1" vertex="1">
                    <mxGeometry x="520" y="540" width="40" height="20" as="geometry"/>
                </mxCell>
                <mxCell id="90" value="GND" style="text;html=1;strokeColor=none;fillColor=none;align=right;verticalAlign=middle;whiteSpace=wrap;rounded=0;" parent="1" vertex="1">
                    <mxGeometry x="520" y="560" width="40" height="20" as="geometry"/>
                </mxCell>
                <mxCell id="91" value="VIN" style="text;html=1;strokeColor=none;fillColor=none;align=right;verticalAlign=middle;whiteSpace=wrap;rounded=0;" parent="1" vertex="1">
                    <mxGeometry x="520" y="580" width="40" height="20" as="geometry"/>
                </mxCell>
                <mxCell id="93" value="" style="ellipse;whiteSpace=wrap;html=1;aspect=fixed;" parent="1" vertex="1">
                    <mxGeometry x="590" y="290" width="20" height="20" as="geometry"/>
                </mxCell>
                <mxCell id="94" value="" style="ellipse;whiteSpace=wrap;html=1;aspect=fixed;" parent="1" vertex="1">
                    <mxGeometry x="750" y="290" width="20" height="20" as="geometry"/>
                </mxCell>
                <mxCell id="95" value="LED_BUILTIN" style="text;html=1;strokeColor=none;fillColor=none;align=center;verticalAlign=middle;whiteSpace=wrap;rounded=0;rotation=-90;" parent="1" vertex="1">
                    <mxGeometry x="560" y="230" width="80" height="20" as="geometry"/>
                </mxCell>
                <mxCell id="96" value="Power" style="text;html=1;strokeColor=none;fillColor=none;align=center;verticalAlign=middle;whiteSpace=wrap;rounded=0;rotation=-90;" parent="1" vertex="1">
                    <mxGeometry x="740" y="250" width="40" height="20" as="geometry"/>
                </mxCell>
                <mxCell id="97" value="LCD HD44780" parent="0"/>
                <mxCell id="98" value="" style="rounded=0;whiteSpace=wrap;html=1;" parent="97" vertex="1">
                    <mxGeometry x="520" y="830" width="400" height="170" as="geometry"/>
                </mxCell>
                <mxCell id="99" value="LCD&amp;nbsp;&lt;span class=&quot;a-list-item&quot;&gt;HD44780&amp;nbsp;&lt;/span&gt;" style="rounded=0;whiteSpace=wrap;html=1;" parent="97" vertex="1">
                    <mxGeometry x="530" y="860" width="380" height="120" as="geometry"/>
                </mxCell>
                <mxCell id="100" value="" style="ellipse;whiteSpace=wrap;html=1;aspect=fixed;" parent="97" vertex="1">
                    <mxGeometry x="540" y="830" width="20" height="20" as="geometry"/>
                </mxCell>
                <mxCell id="101" value="" style="ellipse;whiteSpace=wrap;html=1;aspect=fixed;" parent="97" vertex="1">
                    <mxGeometry x="560" y="830" width="20" height="20" as="geometry"/>
                </mxCell>
                <mxCell id="102" value="" style="ellipse;whiteSpace=wrap;html=1;aspect=fixed;" parent="97" vertex="1">
                    <mxGeometry x="580" y="830" width="20" height="20" as="geometry"/>
                </mxCell>
                <mxCell id="103" value="" style="ellipse;whiteSpace=wrap;html=1;aspect=fixed;" parent="97" vertex="1">
                    <mxGeometry x="600" y="830" width="20" height="20" as="geometry"/>
                </mxCell>
                <mxCell id="104" value="" style="ellipse;whiteSpace=wrap;html=1;aspect=fixed;" parent="97" vertex="1">
                    <mxGeometry x="620" y="830" width="20" height="20" as="geometry"/>
                </mxCell>
                <mxCell id="105" value="" style="ellipse;whiteSpace=wrap;html=1;aspect=fixed;" parent="97" vertex="1">
                    <mxGeometry x="640" y="830" width="20" height="20" as="geometry"/>
                </mxCell>
                <mxCell id="106" value="" style="ellipse;whiteSpace=wrap;html=1;aspect=fixed;" parent="97" vertex="1">
                    <mxGeometry x="660" y="830" width="20" height="20" as="geometry"/>
                </mxCell>
                <mxCell id="107" value="" style="ellipse;whiteSpace=wrap;html=1;aspect=fixed;" parent="97" vertex="1">
                    <mxGeometry x="680" y="830" width="20" height="20" as="geometry"/>
                </mxCell>
                <mxCell id="108" value="" style="ellipse;whiteSpace=wrap;html=1;aspect=fixed;" parent="97" vertex="1">
                    <mxGeometry x="700" y="830" width="20" height="20" as="geometry"/>
                </mxCell>
                <mxCell id="109" value="" style="ellipse;whiteSpace=wrap;html=1;aspect=fixed;" parent="97" vertex="1">
                    <mxGeometry x="720" y="830" width="20" height="20" as="geometry"/>
                </mxCell>
                <mxCell id="110" value="" style="ellipse;whiteSpace=wrap;html=1;aspect=fixed;" parent="97" vertex="1">
                    <mxGeometry x="740" y="830" width="20" height="20" as="geometry"/>
                </mxCell>
                <mxCell id="111" value="" style="ellipse;whiteSpace=wrap;html=1;aspect=fixed;" parent="97" vertex="1">
                    <mxGeometry x="760" y="830" width="20" height="20" as="geometry"/>
                </mxCell>
                <mxCell id="112" value="" style="ellipse;whiteSpace=wrap;html=1;aspect=fixed;" parent="97" vertex="1">
                    <mxGeometry x="780" y="830" width="20" height="20" as="geometry"/>
                </mxCell>
                <mxCell id="113" value="" style="ellipse;whiteSpace=wrap;html=1;aspect=fixed;" parent="97" vertex="1">
                    <mxGeometry x="800" y="830" width="20" height="20" as="geometry"/>
                </mxCell>
                <mxCell id="114" value="" style="ellipse;whiteSpace=wrap;html=1;aspect=fixed;" parent="97" vertex="1">
                    <mxGeometry x="820" y="830" width="20" height="20" as="geometry"/>
                </mxCell>
                <mxCell id="115" value="" style="ellipse;whiteSpace=wrap;html=1;aspect=fixed;" parent="97" vertex="1">
                    <mxGeometry x="840" y="830" width="20" height="20" as="geometry"/>
                </mxCell>
                <mxCell id="116" value="VSS" style="text;html=1;strokeColor=none;fillColor=none;align=left;verticalAlign=middle;whiteSpace=wrap;rounded=0;rotation=-90;" parent="97" vertex="1">
                    <mxGeometry x="530" y="800" width="40" height="20" as="geometry"/>
                </mxCell>
                <mxCell id="117" value="VDD" style="text;html=1;strokeColor=none;fillColor=none;align=left;verticalAlign=middle;whiteSpace=wrap;rounded=0;rotation=-90;" parent="97" vertex="1">
                    <mxGeometry x="550" y="800" width="40" height="20" as="geometry"/>
                </mxCell>
                <mxCell id="118" value="VE" style="text;html=1;strokeColor=none;fillColor=none;align=left;verticalAlign=middle;whiteSpace=wrap;rounded=0;rotation=-90;" parent="97" vertex="1">
                    <mxGeometry x="570" y="800" width="40" height="20" as="geometry"/>
                </mxCell>
                <mxCell id="119" value="Register Select" style="text;html=1;strokeColor=none;fillColor=none;align=left;verticalAlign=middle;whiteSpace=wrap;rounded=0;rotation=-90;" parent="97" vertex="1">
                    <mxGeometry x="565" y="775" width="90" height="20" as="geometry"/>
                </mxCell>
                <mxCell id="120" value="Read/Write" style="text;html=1;strokeColor=none;fillColor=none;align=left;verticalAlign=middle;whiteSpace=wrap;rounded=0;rotation=-90;" parent="97" vertex="1">
                    <mxGeometry x="595" y="785" width="70" height="20" as="geometry"/>
                </mxCell>
                <mxCell id="121" value="Enable" style="text;html=1;strokeColor=none;fillColor=none;align=left;verticalAlign=middle;whiteSpace=wrap;rounded=0;rotation=-90;" parent="97" vertex="1">
                    <mxGeometry x="630" y="800" width="40" height="20" as="geometry"/>
                </mxCell>
                <mxCell id="122" value="Data 0" style="text;html=1;strokeColor=none;fillColor=none;align=left;verticalAlign=middle;whiteSpace=wrap;rounded=0;rotation=-90;" parent="97" vertex="1">
                    <mxGeometry x="650" y="800" width="40" height="20" as="geometry"/>
                </mxCell>
                <mxCell id="123" value="Data 1" style="text;html=1;strokeColor=none;fillColor=none;align=left;verticalAlign=middle;whiteSpace=wrap;rounded=0;rotation=-90;" parent="97" vertex="1">
                    <mxGeometry x="670" y="800" width="40" height="20" as="geometry"/>
                </mxCell>
                <mxCell id="124" value="Data 2" style="text;html=1;strokeColor=none;fillColor=none;align=left;verticalAlign=middle;whiteSpace=wrap;rounded=0;rotation=-90;" parent="97" vertex="1">
                    <mxGeometry x="690" y="800" width="40" height="20" as="geometry"/>
                </mxCell>
                <mxCell id="125" value="Data 3" style="text;html=1;strokeColor=none;fillColor=none;align=left;verticalAlign=middle;whiteSpace=wrap;rounded=0;rotation=-90;" parent="97" vertex="1">
                    <mxGeometry x="710" y="800" width="40" height="20" as="geometry"/>
                </mxCell>
                <mxCell id="126" value="Data 4" style="text;html=1;strokeColor=none;fillColor=none;align=left;verticalAlign=middle;whiteSpace=wrap;rounded=0;rotation=-90;" parent="97" vertex="1">
                    <mxGeometry x="730" y="800" width="40" height="20" as="geometry"/>
                </mxCell>
                <mxCell id="127" value="Data 5" style="text;html=1;strokeColor=none;fillColor=none;align=left;verticalAlign=middle;whiteSpace=wrap;rounded=0;rotation=-90;" parent="97" vertex="1">
                    <mxGeometry x="750" y="800" width="40" height="20" as="geometry"/>
                </mxCell>
                <mxCell id="128" value="Data 6" style="text;html=1;strokeColor=none;fillColor=none;align=left;verticalAlign=middle;whiteSpace=wrap;rounded=0;rotation=-90;" parent="97" vertex="1">
                    <mxGeometry x="770" y="800" width="40" height="20" as="geometry"/>
                </mxCell>
                <mxCell id="129" value="Data 7" style="text;html=1;strokeColor=none;fillColor=none;align=left;verticalAlign=middle;whiteSpace=wrap;rounded=0;rotation=-90;" parent="97" vertex="1">
                    <mxGeometry x="790" y="800" width="40" height="20" as="geometry"/>
                </mxCell>
                <mxCell id="130" value="Backlight Anode" style="text;html=1;strokeColor=none;fillColor=none;align=left;verticalAlign=middle;whiteSpace=wrap;rounded=0;rotation=-90;" parent="97" vertex="1">
                    <mxGeometry x="785" y="775" width="90" height="20" as="geometry"/>
                </mxCell>
                <mxCell id="131" value="Backlight Cathode" style="text;html=1;strokeColor=none;fillColor=none;align=left;verticalAlign=middle;whiteSpace=wrap;rounded=0;rotation=-90;" parent="97" vertex="1">
                    <mxGeometry x="800" y="770" width="100" height="20" as="geometry"/>
                </mxCell>
                <mxCell id="132" value="54-410 Switch" parent="0"/>
                <mxCell id="133" value="" style="rounded=0;whiteSpace=wrap;html=1;align=left;" vertex="1" parent="132">
                    <mxGeometry x="1000" y="440" width="120" height="60" as="geometry"/>
                </mxCell>
                <mxCell id="134" value="" style="ellipse;whiteSpace=wrap;html=1;aspect=fixed;" vertex="1" parent="132">
                    <mxGeometry x="1100" y="440" width="20" height="20" as="geometry"/>
                </mxCell>
                <mxCell id="135" value="" style="ellipse;whiteSpace=wrap;html=1;aspect=fixed;" vertex="1" parent="132">
                    <mxGeometry x="1100" y="480" width="20" height="20" as="geometry"/>
                </mxCell>
                <mxCell id="136" value="" style="ellipse;whiteSpace=wrap;html=1;aspect=fixed;" vertex="1" parent="132">
                    <mxGeometry x="1060" y="480" width="20" height="20" as="geometry"/>
                </mxCell>
                <mxCell id="137" value="" style="endArrow=none;html=1;entryX=0;entryY=0.25;entryDx=0;entryDy=0;" edge="1" parent="132" target="133">
                    <mxGeometry width="50" height="50" relative="1" as="geometry">
                        <mxPoint x="880" y="460" as="sourcePoint"/>
                        <mxPoint x="1100" y="660" as="targetPoint"/>
                    </mxGeometry>
                </mxCell>
                <mxCell id="138" value="NC" style="text;html=1;strokeColor=none;fillColor=none;align=center;verticalAlign=middle;whiteSpace=wrap;rounded=0;" vertex="1" parent="132">
                    <mxGeometry x="1120" y="440" width="40" height="20" as="geometry"/>
                </mxCell>
                <mxCell id="139" value="NO" style="text;html=1;strokeColor=none;fillColor=none;align=center;verticalAlign=middle;whiteSpace=wrap;rounded=0;" vertex="1" parent="132">
                    <mxGeometry x="1120" y="480" width="40" height="20" as="geometry"/>
                </mxCell>
                <mxCell id="140" value="COM" style="text;html=1;strokeColor=none;fillColor=none;align=center;verticalAlign=middle;whiteSpace=wrap;rounded=0;rotation=90;" vertex="1" parent="132">
                    <mxGeometry x="1050" y="510" width="40" height="20" as="geometry"/>
                </mxCell>
            </root>
        </mxGraphModel>
    </diagram>
</mxfile>